<?xml version="1.0" encoding="UTF-8"?>
<svg id="Layer_2" data-name="Layer 2" xmlns="http://www.w3.org/2000/svg" xmlns:xlink="http://www.w3.org/1999/xlink" viewBox="0 0 1922.51 615.53">
  <defs>
    <style>
      .cls-1 {
        fill: url(#linear-gradient);
      }

      .cls-1, .cls-2, .cls-3, .cls-4, .cls-5 {
        stroke-width: 0px;
      }

      .cls-6 {
        fill: #231f20;
        font-family: CalifornianFB-Reg, 'Californian FB';
        font-size: 79.07px;
        letter-spacing: .2em;
        stroke-width: 3px;
      }

      .cls-6, .cls-7 {
        stroke: #010101;
        stroke-miterlimit: 10;
      }

      .cls-2 {
        fill: url(#linear-gradient-5);
      }

      .cls-3 {
        fill: url(#linear-gradient-2);
      }

      .cls-4 {
        fill: url(#linear-gradient-3);
      }

      .cls-7 {
        fill: #010101;
        stroke-width: 6px;
      }

      .cls-5 {
        fill: url(#linear-gradient-4);
      }
    </style>
    <linearGradient id="linear-gradient" x1="83.35" y1="327.91" x2="311.29" y2="327.91" gradientUnits="userSpaceOnUse">
      <stop offset="0" stop-color="#d7b029"/>
      <stop offset=".19" stop-color="#e5cd77"/>
      <stop offset=".51" stop-color="#fff"/>
      <stop offset="1" stop-color="#d5bc29"/>
    </linearGradient>
    <linearGradient id="linear-gradient-2" x1="127.18" y1="268.79" x2="352.84" y2="268.79" xlink:href="#linear-gradient"/>
    <linearGradient id="linear-gradient-3" x1="42.06" y1="383.89" x2="267.31" y2="383.89" xlink:href="#linear-gradient"/>
    <linearGradient id="linear-gradient-4" x1="0" y1="437.6" x2="211.91" y2="437.6" xlink:href="#linear-gradient"/>
    <linearGradient id="linear-gradient-5" x1="178.92" y1="195.99" x2="387.32" y2="195.99" xlink:href="#linear-gradient"/>
  </defs>
  <g id="Layer_1-2" data-name="Layer 1">
    <g>
      <path class="cls-1" d="m98.19,113.88c-1.29,28.89,4.75,59.22,13.8,86.42,16.1,48.4,56.27,82.01,91.95,116.35,20.19,19.43,42.68,36.6,61.71,57.05,42.37,45.54,57.39,98.3,35.93,158.78-1.01,2.86-2.38,5.61-3.8,8.3-.49.92-1.67,1.48-1.03.94,3.91-31.2-3.81-57.9-12.45-83.66-14.72-43.89-50.53-72.41-83.7-103.87-32.19-30.52-69.11-58.48-91.82-96.34-23.86-39.78-33.26-81.75-18-127.15,1.55-4.61,3.52-9.09,5.44-13.57.68-1.59,1.82-2.99,1.97-3.24Z"/>
      <path class="cls-3" d="m144.52,51.59c-3.66,32.81-2.45,64.64,10.41,95.48,18.18,43.61,51.19,74.94,85.34,105.7,27.56,24.83,56.15,49.07,80.27,77.04,35.24,40.87,42.03,108.75,18.51,156.19-.99-4.52-2.05-6.92-1.95-9.27,2.89-71.2-34.08-122.2-83.48-167.6-41.19-37.85-86.47-72.32-111.38-124.75-21.17-44.57-19.66-88.92,2.28-132.79Z"/>
      <path class="cls-4" d="m252.18,596.43c10.66-80.29-35.77-131.35-88.66-179.6-29.24-26.67-59.93-52.35-85.49-82.31-37.16-43.57-44.03-95.31-27.49-150.01.95-3.14,3.02-5.94,6.79-13.17.95,17.88.82,31.01,2.49,43.91,5.97,46.12,28.24,84.33,60.5,116.61,30.62,30.65,63.07,59.46,94.02,89.79,29.71,29.12,48.74,64.01,52.43,106.17,2.11,24.12-1.84,47.1-14.59,68.6Z"/>
      <path class="cls-5" d="m7.8,259.67c1.5,78.24,52.71,124.5,105.21,170.82,28.65,25.28,40.15,33.22,74.91,80.74,23.51,32.14,31.21,68.59,16.48,104.31-7.68-36.63-18.08-52.11-33.35-73.53-19.96-28.01-45.02-52.85-70.24-76.55-36.74-34.52-72.33-69.45-91.37-117.37-11.52-29-13.02-58.59-1.65-88.41Z"/>
      <path class="cls-2" d="m194.8,0c1.48,21.57-18.28,96.66,85.28,193.29,25.02,23.34,48.91,47.99,71.45,73.66,35.18,44.75,38.28,78.66,34.6,100.04-1.41,8.15-2.19,16.53-7.35,24.99-1.85-10.18-3.35-20.44-5.61-30.53-10.61-47.46-44.12-84.09-78.54-115.03-27.69-24.89-48.96-48.06-74.45-75.06-32.63-34.56-47.12-95.64-39.09-130.59,2.82-12.27,13.71-40.75,13.71-40.75Z"/>
    </g>
    <text class="cls-6" transform="translate(745.52 495.8)"><tspan x="0" y="0">REAL ESTATE LLC</tspan></text>
    <g>
      <path class="cls-7" d="m496.57,317.01s-50.63-13.28-50.63-62.38c0-37.92,34.54-63.83,68.81-66.49,7.47-.58,16.58,1.52,16.58,1.52,0,0,1.78,54.79,1.78,98.73,0,30.24,22.1,62.93,65.9,62.93,32.49,0,64.58-20.15,64.11-53.29-.39-27.45-.72-77.43.12-95.47.13-2.9.59-7.54,3.82-11.21,3.89-4.41,9.04-7.35,9.04-7.35l-29.13.1s10.78,3.64,12,7.23c0,9.14.08,25.98.09,40.13.03,38.79.62,37.47-1.24,72.13-1.21,22.45-31.84,43.43-58.79,42.84-30.35-.67-54.96-26.35-54.96-49.53,0-52.85.55-105.81.55-105.81,0,0,2.55-1.12,5.29-3.25,2.06-1.61,2.98-3.1,2.98-3.1,0,0-9.12-.51-23.84-.42-13.63.09-19.15,1.36-22.41,1.85-18.99,2.81-65.61,17.96-65.61,68.99,0,30.01,21.43,57.21,44.49,61.55,6.75,1.27,11.04.32,11.04.32Z"/>
      <path class="cls-7" d="m828.26,336.59c-4.27-5.41-21.63-43.58-51.23-54.85-.65-.26-.09-3.06,2.91-3.8,3.03-.74,13.33-5.44,13.33-5.44,0,0,23.69-9.09,25.75-38.72,2.06-29.63-32.37-44.61-32.37-44.61,0,0-7.74-4.06-25.01-4.88-17.24-.79-62.88-.29-62.88-.29,0,0,.48,2.55,3.55,2.91,3.22.37,4.19,0,6.9.53,2.7.53,3.3,6,3.3,6,0,0,1.91,136.5-.5,143.18-2.41,6.65-12.01,14.87-12.01,14.87l34.07-.18s-16.65-7.81-16.65-14.93c0-3.41,3.09-47.08,3.09-49.2s4.35-5.44,7.39-5.8c3.18-.32,10.8-.15,18.8,0,8.03.18,20.13-1.41,33.72,8.74,16.62,12.45,24.19,26.01,37.87,53.11,2.88,5.77,6.65,7.84,8,8.08,2.53.41,14.51-2.47,14.51-2.47,0,0-7.3-5.63-12.53-12.25Zm-109.47-62.79v-66.15c0-12.24,14.07-14.18,16.61-15.24,6.17-2.58,35-1.35,43.4,1.26,7.09,2.2,30.15,14.13,30.15,39.82,0,17.68-10.68,25.89-13.92,28.61-2.88,2.42-18.95,9.71-22.56,10.55-7.79,1.82-53.69,1.15-53.69,1.15Z"/>
      <path class="cls-7" d="m1614.99,373.82c-46.78-1.74-85.9-80.81-115.5-92.08-.65-.26-.09-3.06,2.91-3.8,3.03-.74,13.33-5.44,13.33-5.44,0,0,23.69-9.09,25.75-38.72s-32.37-44.61-32.37-44.61c0,0-7.74-4.06-25.01-4.88-17.24-.79-62.88-.29-62.88-.29,0,0,.48,2.55,3.55,2.91,3.22.37,4.19,0,6.9.53,2.7.53,3.3,6,3.3,6,0,0,1.91,136.5-.5,143.18-2.41,6.65-12.01,14.87-12.01,14.87l34.07-.18s-13.71-7.81-13.71-14.93c0-3.41.15-47.08.15-49.2s4.35-5.44,7.39-5.8c3.18-.32,10.8-.15,18.8,0,8.03.18,20.13-1.41,33.72,8.74,16.62,12.45,26.13,29.23,39.44,44.26,3.47,3.92,38.63,51.42,72.42,51.42s60.82-34.49,60.82-34.49c0,0-22.89,23.91-60.57,22.51Zm-170.81-100.02v-66.15c0-12.24,11.13-14.18,13.67-15.24,6.17-2.58,35.09-1.15,43.48,1.45,7.09,2.2,30.93,12.78,30.93,38.46,0,17.68-13,29.37-16.24,32.09-2.88,2.42-17.49,7.39-21.1,8.23-7.79,1.82-50.74,1.15-50.74,1.15Z"/>
      <path class="cls-7" d="m953.1,257.44c-.15-1.71.94-4.83,5.27-8.27,4.3-3.44,15.92-8,15.33-31.34-.56-23.33-25.19-33.84-41.31-33.84h-68.68s9.77,4.21,9.77,15.07.12,133,.12,133c0,0,.74,15.12-13.24,19.24,11.03.21,84.24.5,92.39,0,12.3-.32,40.66-15.36,40.66-51.85s-40.16-40.31-40.31-42.02Zm-71.67-52.58c-.05-12.06,0-13.89,18.03-14.24,10.72-.21,30-.2,36.54.74,11.53,1.64,15.97,5.21,21,9.24,7.94,6.38,16.34,33.71-4.64,47.98-6.53,4.44-8.38,4.51-13.66,6.93-3.63,1.66-57.28-.24-57.28-.24,0,0,.01-47.69,0-50.4Zm88.98,132.33c-12.47,8.19-29.84,8.85-36.93,8.85-6.59,0-54.9.2-54.9.2,0,0,2.85-12.62,2.85-35.9v-50.43l57.07-.42s7.06.92,13.31,2.42c42.57,10.24,44.64,58.18,18.6,75.28Z"/>
      <path class="cls-7" d="m1141.74,351.31h33.1s-6.91-1.06-9.21-3.62c-6.76-7.51-7.52-11-8.44-13.11-.93-2.11-65.03-148.3-65.03-148.3-.82-1.74-5.97-1.59-6.77.15-10.5,22.95-56.19,130.43-67.11,150.18-4.81,8.7-13.81,9.19-15.43,11.79-.84,1.35.57,2.91.98,2.91s30.63.13,30.63.13c0,0,5.28-4.27-6.84-4.05-.99.02-1.83-.15-2.19-.73-.67-1.09.28-9.34.81-11.96,1.09-10.83,18.68-44.11,20.36-47.73,1.91-4.15,2.15-5.56,9.18-5.56,6.5,0,58.7-.21,63.67-.06,4.97.18,7.18,7.56,7.18,7.56,0,0,12.18,28.28,19.01,43.34,5.03,11.09-3.91,19.05-3.91,19.05Zm-87.96-79.69l33.37-75.49c.29-.69,1.27-.69,1.57,0l32.59,76.9c.48,1.08-.31,2.3-1.5,2.3l-64.35-1.15c-1.31,0-2.2-1.34-1.68-2.55Z"/>
      <path class="cls-7" d="m1209.86,336.42c.51-2.21-.03-141.98-.03-141.98,0-1.26-.8-2.66-2.93-4.47s-11.12-5.97-11.12-5.97c0,0,5.15-.66,16.24,0,5.25.31,9.23,5.43,11.29,7.58,4.32,4.52,93.93,126.7,98.46,133.34,4.53,6.64,8.72,10.87,8.77,10.92,0,0,.3-127.76.3-133.32s-1.74-16.96-14.55-18.52c7.86-.25,32.22,0,32.22,0,0,0-12.15.98-12.37,9.93-.43,17.33-.94,149.48-.94,149.48,0,0,1.51,7.91-4.64,7.91-7.84,0-6.05-9.22-12.46-15.63-1.95-2.57-92.82-126.14-97.42-129.64-1.21-.92-2.97-2.49-6.07-3.3-1.39-.37-.76,130.42-.76,130.42,0,0,.13,7.22,1.93,9.96,1.8,2.74,13.88,8.2,13.88,8.2h-34.75s-.17-1.85,4.12-3.39c3.87-1.4,5.81.09,7.86-1.55,2.5-2,2.54-8.06,2.98-9.96Z"/>
      <path class="cls-7" d="m1628.53,351.31l-36.74.13s12.41-8.76,12.86-16.95c.45-8.19.58-130.78.71-136.5.12-5.72-4.85-10.03-12.01-13.99,12.03-.16,39.43,0,39.43,0,0,0-14.99,1.82-15.37,8.63-1.48,26.63-1.44,112.76.1,140.02.94,16.48,11.02,18.66,11.02,18.66Z"/>
      <path class="cls-7" d="m1641.13,299.42s8.32,23.08,25.63,34.89c17.31,11.81,51.62,18.8,72.22,3.45,20.6-15.35,23.17-40.94,5-57.91-18.16-16.97-53.6-14.39-78.92-33.72-11.76-8.98-17.86-35.08-.07-50.15,17.79-15.06,33.15-11.97,45.89-11.97h188.45s8.81,21.15,9.85,26.28c.59,2.89.25,3.14.2,5.3-2.51-8.08-4.44-12.43-10.6-22.47-1.54-2.51-6.27-5.52-13.23-5.52-11.4,0-173.19-.67-188.23-.21-28.86.88-55.15,30.26-22.74,56.44,12.56,10.14,26.49,5.66,61.49,19.8,21.42,8.65,32.84,22.97,31.53,45.65-1.32,22.68-28.12,42.88-59.63,42.05-31.51-.83-46.89-14.63-46.89-14.63,0,0-9.17-6.06-19.95,3.87v-41.14Z"/>
      <path class="cls-7" d="m1919.41,320.6c-.46,1.79-3.53,14.52-9.23,27.09-2.07,4.57-8.37,3.65-10.35,3.65-20.02-.02-56.17-.02-111.84-.02,6.24-5.53,11.02-10.39,11.52-14.21,1.3-9.99.09-132.84.24-138.32.19-6.74,9.48-6.47,9.48.3,0,7.93.55,59.96.55,59.96,0,0,33.13.06,45.67.06,5.31,0,13.13-6.54,13.13-6.54l-.25,13.92.25,5.42s-4.33-7.6-13.62-7.48c-9.29.12-45.29.04-45.29.04l-.14,72.45s-1.25,7.73,8.55,8.12c9.79.39,79.7.32,80.51.31.81,0,8.75,1.37,10.93-6.11,2.18-7.47,4.92-16.9,7-21.08,2.08-4.18,3.35.65,2.89,2.44Z"/>
    </g>
  </g>
</svg>