<?xml version="1.0" encoding="UTF-8"?>
<svg id="Layer_2" data-name="Layer 2" xmlns="http://www.w3.org/2000/svg" xmlns:xlink="http://www.w3.org/1999/xlink" viewBox="0 0 1792.61 413.11">
  <defs>
    <style>
      .cls-1 {
        fill: url(#linear-gradient);
      }

      .cls-1, .cls-2, .cls-3, .cls-4, .cls-5 {
        stroke-width: 0px;
      }

      .cls-6 {
        fill: #010101;
        stroke: #010101;
        stroke-miterlimit: 10;
        stroke-width: 4px;
      }

      .cls-2 {
        fill: url(#linear-gradient-5);
      }

      .cls-7 {
        fill: #231f20;
        font-family: CalifornianFB-Reg, 'Californian FB';
        font-size: 79.07px;
        letter-spacing: .2em;
      }

      .cls-3 {
        fill: url(#linear-gradient-2);
      }

      .cls-4 {
        fill: url(#linear-gradient-3);
      }

      .cls-5 {
        fill: url(#linear-gradient-4);
      }
    </style>
    <linearGradient id="linear-gradient" x1="51.78" y1="203.69" x2="193.37" y2="203.69" gradientUnits="userSpaceOnUse">
      <stop offset="0" stop-color="#d7b029"/>
      <stop offset=".19" stop-color="#e5cd77"/>
      <stop offset=".51" stop-color="#fff"/>
      <stop offset="1" stop-color="#d5bc29"/>
    </linearGradient>
    <linearGradient id="linear-gradient-2" x1="79" y1="166.97" x2="219.18" y2="166.97" xlink:href="#linear-gradient"/>
    <linearGradient id="linear-gradient-3" x1="26.13" y1="238.46" x2="166.05" y2="238.46" xlink:href="#linear-gradient"/>
    <linearGradient id="linear-gradient-4" x1="0" y1="271.83" x2="131.63" y2="271.83" xlink:href="#linear-gradient"/>
    <linearGradient id="linear-gradient-5" x1="111.14" y1="121.74" x2="240.6" y2="121.74" xlink:href="#linear-gradient"/>
  </defs>
  <g id="Layer_1-2" data-name="Layer 1">
    <g>
      <path class="cls-1" d="m60.99,70.74c-.8,17.94,2.95,36.78,8.57,53.68,10,30.07,34.95,50.94,57.12,72.27,12.54,12.07,26.51,22.74,38.33,35.44,26.32,28.29,35.65,61.06,22.32,98.63-.63,1.78-1.48,3.49-2.36,5.15-.3.57-1.04.92-.64.59,2.43-19.38-2.36-35.96-7.73-51.97-9.14-27.26-31.39-44.98-51.99-64.52-19.99-18.96-42.93-36.32-57.04-59.85-14.82-24.71-20.66-50.78-11.18-78.99.96-2.86,2.18-5.65,3.38-8.43.43-.99,1.13-1.86,1.23-2.02Z"/>
      <path class="cls-3" d="m89.77,32.04c-2.28,20.38-1.52,40.15,6.46,59.31,11.29,27.09,31.8,46.55,53.01,65.66,17.12,15.42,34.88,30.48,49.86,47.86,21.89,25.39,26.11,67.55,11.5,97.02-.61-2.81-1.27-4.3-1.21-5.76,1.79-44.23-21.17-75.91-51.86-104.11-25.59-23.51-53.71-44.92-69.19-77.49-13.15-27.68-12.21-55.23,1.42-82.49Z"/>
      <path class="cls-4" d="m156.65,370.49c6.62-49.88-22.22-81.59-55.07-111.56-18.16-16.57-37.23-32.52-53.1-51.13-23.09-27.06-27.35-59.2-17.08-93.18.59-1.95,1.87-3.69,4.22-8.18.59,11.1.51,19.26,1.55,27.27,3.71,28.65,17.54,52.38,37.58,72.44,19.02,19.04,39.18,36.94,58.4,55.78,18.46,18.09,30.28,39.76,32.57,65.95,1.31,14.98-1.14,29.26-9.06,42.62Z"/>
      <path class="cls-5" d="m4.85,161.3c.93,48.6,32.74,77.34,65.35,106.11,17.8,15.7,24.94,20.63,46.53,50.15,14.6,19.96,19.39,42.61,10.24,64.8-4.77-22.75-11.23-32.37-20.72-45.68-12.4-17.4-27.96-32.83-43.63-47.55-22.82-21.44-44.93-43.14-56.76-72.91-7.16-18.01-8.09-36.39-1.03-54.92Z"/>
      <path class="cls-2" d="m121.01,0c.92,13.4-11.36,60.04,52.97,120.07,15.54,14.5,30.38,29.81,44.38,45.76,21.85,27.8,23.78,48.86,21.49,62.14-.87,5.06-1.36,10.27-4.57,15.52-1.15-6.33-2.08-12.7-3.48-18.97-6.59-29.48-27.41-52.24-48.79-71.45-17.2-15.46-30.41-29.85-46.25-46.63-20.27-21.47-29.27-59.41-24.28-81.12,1.75-7.62,8.51-25.31,8.51-25.31Z"/>
    </g>
    <text class="cls-7" transform="translate(616.62 359.38)"><tspan x="0" y="0">REAL ESTATE LLC</tspan></text>
    <g>
      <path class="cls-6" d="m367.66,180.59s-50.63-13.28-50.63-62.38c0-37.92,34.54-63.83,68.81-66.49,7.47-.58,16.58,1.52,16.58,1.52,0,0,1.78,54.79,1.78,98.73,0,30.24,22.1,62.93,65.9,62.93,32.49,0,64.58-20.15,64.11-53.29-.39-27.45-.72-77.43.12-95.47.13-2.9.59-7.54,3.82-11.21,3.89-4.41,9.04-7.35,9.04-7.35l-29.13.1s10.78,3.64,12,7.23c0,9.14.08,25.98.09,40.13.03,38.79.62,37.47-1.24,72.13-1.21,22.45-31.84,43.43-58.79,42.84-30.35-.67-54.96-26.35-54.96-49.53,0-52.85.55-105.81.55-105.81,0,0,2.55-1.12,5.29-3.25,2.06-1.61,2.98-3.1,2.98-3.1,0,0-9.12-.51-23.84-.42-13.63.09-19.15,1.36-22.41,1.85-18.99,2.81-65.61,17.96-65.61,68.99,0,30.01,21.43,57.21,44.49,61.55,6.75,1.27,11.04.32,11.04.32Z"/>
      <path class="cls-6" d="m699.35,200.17c-4.27-5.41-21.63-43.58-51.23-54.85-.65-.26-.09-3.06,2.91-3.8,3.03-.74,13.33-5.44,13.33-5.44,0,0,23.69-9.09,25.75-38.72,2.06-29.63-32.37-44.61-32.37-44.61,0,0-7.74-4.06-25.01-4.88-17.24-.79-62.88-.29-62.88-.29,0,0,.48,2.55,3.55,2.91,3.22.37,4.19,0,6.9.53,2.7.53,3.3,6,3.3,6,0,0,1.91,136.5-.5,143.18-2.41,6.65-12.01,14.87-12.01,14.87l34.07-.18s-16.65-7.81-16.65-14.93c0-3.41,3.09-47.08,3.09-49.2s4.35-5.44,7.39-5.8c3.18-.32,10.8-.15,18.8,0,8.03.18,20.13-1.41,33.72,8.74,16.62,12.45,24.19,26.01,37.87,53.11,2.88,5.77,6.65,7.84,8,8.08,2.53.41,14.51-2.47,14.51-2.47,0,0-7.3-5.63-12.53-12.25Zm-109.47-62.79v-66.15c0-12.24,14.07-14.18,16.61-15.24,6.17-2.58,35-1.35,43.4,1.26,7.09,2.2,30.15,14.13,30.15,39.82,0,17.68-10.68,25.89-13.92,28.61-2.88,2.42-18.95,9.71-22.56,10.55-7.79,1.82-53.69,1.15-53.69,1.15Z"/>
      <path class="cls-6" d="m1486.09,237.4c-46.78-1.74-85.9-80.81-115.5-92.08-.65-.26-.09-3.06,2.91-3.8,3.03-.74,13.33-5.44,13.33-5.44,0,0,23.69-9.09,25.75-38.72s-32.37-44.61-32.37-44.61c0,0-7.74-4.06-25.01-4.88-17.24-.79-62.88-.29-62.88-.29,0,0,.48,2.55,3.55,2.91,3.22.37,4.19,0,6.9.53,2.7.53,3.3,6,3.3,6,0,0,1.91,136.5-.5,143.18-2.41,6.65-12.01,14.87-12.01,14.87l34.07-.18s-13.71-7.81-13.71-14.93c0-3.41.15-47.08.15-49.2s4.35-5.44,7.39-5.8c3.18-.32,10.8-.15,18.8,0,8.03.18,20.13-1.41,33.72,8.74,16.62,12.45,26.13,29.23,39.44,44.26,3.47,3.92,38.63,51.42,72.42,51.42s60.82-34.49,60.82-34.49c0,0-22.89,23.91-60.57,22.51Zm-170.81-100.02v-66.15c0-12.24,11.13-14.18,13.67-15.24,6.17-2.58,35.09-1.15,43.48,1.45,7.09,2.2,30.93,12.78,30.93,38.46,0,17.68-13,29.37-16.24,32.09-2.88,2.42-17.49,7.39-21.1,8.23-7.79,1.82-50.74,1.15-50.74,1.15Z"/>
      <path class="cls-6" d="m824.2,121.02c-.15-1.71.94-4.83,5.27-8.27,4.3-3.44,15.92-8,15.33-31.34-.56-23.33-25.19-33.84-41.31-33.84h-68.68s9.77,4.21,9.77,15.07.12,133,.12,133c0,0,.74,15.12-13.24,19.24,11.03.21,84.24.5,92.39,0,12.3-.32,40.66-15.36,40.66-51.85s-40.16-40.31-40.31-42.02Zm-71.67-52.58c-.05-12.06,0-13.89,18.03-14.24,10.72-.21,30-.2,36.54.74,11.53,1.64,15.97,5.21,21,9.24,7.94,6.38,16.34,33.71-4.64,47.98-6.53,4.44-8.38,4.51-13.66,6.93-3.63,1.66-57.28-.24-57.28-.24,0,0,.01-47.69,0-50.4Zm88.98,132.33c-12.47,8.19-29.84,8.85-36.93,8.85-6.59,0-54.9.2-54.9.2,0,0,2.85-12.62,2.85-35.9v-50.43l57.07-.42s7.06.92,13.31,2.42c42.57,10.24,44.64,58.18,18.6,75.28Z"/>
      <path class="cls-6" d="m1012.84,214.89h33.1s-6.91-1.06-9.21-3.62c-6.76-7.51-7.52-11-8.44-13.11-.93-2.11-65.03-148.3-65.03-148.3-.82-1.74-5.97-1.59-6.77.15-10.5,22.95-56.19,130.43-67.11,150.18-4.81,8.7-13.81,9.19-15.43,11.79-.84,1.35.57,2.91.98,2.91s30.63.13,30.63.13c0,0,5.28-4.27-6.84-4.05-.99.02-1.83-.15-2.19-.73-.67-1.09.28-9.34.81-11.96,1.09-10.83,18.68-44.11,20.36-47.73,1.91-4.15,2.15-5.56,9.18-5.56,6.5,0,58.7-.21,63.67-.06,4.97.18,7.18,7.56,7.18,7.56,0,0,12.18,28.28,19.01,43.34,5.03,11.09-3.91,19.05-3.91,19.05Zm-87.96-79.69l33.37-75.49c.29-.69,1.27-.69,1.57,0l32.59,76.9c.48,1.08-.31,2.3-1.5,2.3l-64.35-1.15c-1.31,0-2.2-1.34-1.68-2.55Z"/>
      <path class="cls-6" d="m1080.95,200c.51-2.21-.03-141.98-.03-141.98,0-1.26-.8-2.66-2.93-4.47s-11.12-5.97-11.12-5.97c0,0,5.15-.66,16.24,0,5.25.31,9.23,5.43,11.29,7.58,4.32,4.52,93.93,126.7,98.46,133.34,4.53,6.64,8.72,10.87,8.77,10.92,0,0,.3-127.76.3-133.32s-1.74-16.96-14.55-18.52c7.86-.25,32.22,0,32.22,0,0,0-12.15.98-12.37,9.93-.43,17.33-.94,149.48-.94,149.48,0,0,1.51,7.91-4.64,7.91-7.84,0-6.05-9.22-12.46-15.63-1.95-2.57-92.82-126.14-97.42-129.64-1.21-.92-2.97-2.49-6.07-3.3-1.39-.37-.76,130.42-.76,130.42,0,0,.13,7.22,1.93,9.96,1.8,2.74,13.88,8.2,13.88,8.2h-34.75s-.17-1.85,4.12-3.39c3.87-1.4,5.81.09,7.86-1.55,2.5-2,2.54-8.06,2.98-9.96Z"/>
      <path class="cls-6" d="m1499.62,214.89l-36.74.13s12.41-8.76,12.86-16.95c.45-8.19.58-130.78.71-136.5.12-5.72-4.85-10.03-12.01-13.99,12.03-.16,39.43,0,39.43,0,0,0-14.99,1.82-15.37,8.63-1.48,26.63-1.44,112.76.1,140.02.94,16.48,11.02,18.66,11.02,18.66Z"/>
      <path class="cls-6" d="m1512.23,163s8.32,23.08,25.63,34.89c17.31,11.81,51.62,18.8,72.22,3.45,20.6-15.35,23.17-40.94,5-57.91-18.16-16.97-53.6-14.39-78.92-33.72-11.76-8.98-17.86-35.08-.07-50.15,17.79-15.06,33.15-11.97,45.89-11.97h188.45s8.81,21.15,9.85,26.28c.59,2.89.25,3.14.2,5.3-2.51-8.08-4.44-12.43-10.6-22.47-1.54-2.51-6.27-5.52-13.23-5.52-11.4,0-173.19-.67-188.23-.21-28.86.88-55.15,30.26-22.74,56.44,12.56,10.14,26.49,5.66,61.49,19.8,21.42,8.65,32.84,22.97,31.53,45.65-1.32,22.68-28.12,42.88-59.63,42.05-31.51-.83-46.89-14.63-46.89-14.63,0,0-9.17-6.06-19.95,3.87v-41.14Z"/>
      <path class="cls-6" d="m1790.51,184.18c-.46,1.79-3.53,14.52-9.23,27.09-2.07,4.57-8.37,3.65-10.35,3.65-20.02-.02-56.17-.02-111.84-.02,6.24-5.53,11.02-10.39,11.52-14.21,1.3-9.99.09-132.84.24-138.32.19-6.74,9.48-6.47,9.48.3,0,7.93.55,59.96.55,59.96,0,0,33.13.06,45.67.06,5.31,0,13.13-6.54,13.13-6.54l-.25,13.92.25,5.42s-4.33-7.6-13.62-7.48c-9.29.12-45.29.04-45.29.04l-.14,72.45s-1.25,7.73,8.55,8.12c9.79.39,79.7.32,80.51.31.81,0,8.75,1.37,10.93-6.11,2.18-7.47,4.92-16.9,7-21.08,2.08-4.18,3.35.65,2.89,2.44Z"/>
    </g>
  </g>
</svg>