<?xml version="1.0" encoding="UTF-8"?>
<svg id="Layer_2" data-name="Layer 2" xmlns="http://www.w3.org/2000/svg" xmlns:xlink="http://www.w3.org/1999/xlink" viewBox="0 0 1328.88 382.36">
  <defs>
    <style>
      .cls-1 {
        fill: url(#linear-gradient);
      }

      .cls-1, .cls-2, .cls-3, .cls-4, .cls-5 {
        stroke-width: 0px;
      }

      .cls-2 {
        fill: url(#linear-gradient-5);
      }

      .cls-6 {
        fill: #010101;
        stroke: #010101;
        stroke-miterlimit: 10;
      }

      .cls-3 {
        fill: url(#linear-gradient-2);
      }

      .cls-4 {
        fill: url(#linear-gradient-3);
      }

      .cls-7 {
        fill: #231f20;
        font-family: CalifornianFB-Reg, 'Californian FB';
        font-size: 55.13px;
        letter-spacing: .2em;
      }

      .cls-5 {
        fill: url(#linear-gradient-4);
      }
    </style>
    <linearGradient id="linear-gradient" x1="51.78" y1="203.69" x2="193.37" y2="203.69" gradientUnits="userSpaceOnUse">
      <stop offset="0" stop-color="#d7b029"/>
      <stop offset=".19" stop-color="#e5cd77"/>
      <stop offset=".51" stop-color="#fff"/>
      <stop offset="1" stop-color="#d5bc29"/>
    </linearGradient>
    <linearGradient id="linear-gradient-2" x1="79" y1="166.97" x2="219.18" y2="166.97" xlink:href="#linear-gradient"/>
    <linearGradient id="linear-gradient-3" x1="26.13" y1="238.46" x2="166.05" y2="238.46" xlink:href="#linear-gradient"/>
    <linearGradient id="linear-gradient-4" x1="0" y1="271.83" x2="131.63" y2="271.83" xlink:href="#linear-gradient"/>
    <linearGradient id="linear-gradient-5" x1="111.14" y1="121.74" x2="240.6" y2="121.74" xlink:href="#linear-gradient"/>
  </defs>
  <g id="Layer_1-2" data-name="Layer 1">
    <g>
      <path class="cls-1" d="m60.99,70.74c-.8,17.94,2.95,36.78,8.57,53.68,10,30.07,34.95,50.94,57.12,72.27,12.54,12.07,26.51,22.74,38.33,35.44,26.32,28.29,35.65,61.06,22.32,98.63-.63,1.78-1.48,3.49-2.36,5.15-.3.57-1.04.92-.64.59,2.43-19.38-2.36-35.96-7.73-51.97-9.14-27.26-31.39-44.98-51.99-64.52-19.99-18.96-42.93-36.32-57.04-59.85-14.82-24.71-20.66-50.78-11.18-78.99.96-2.86,2.18-5.65,3.38-8.43.43-.99,1.13-1.86,1.23-2.02Z"/>
      <path class="cls-3" d="m89.77,32.04c-2.28,20.38-1.52,40.15,6.46,59.31,11.29,27.09,31.8,46.55,53.01,65.66,17.12,15.42,34.88,30.48,49.86,47.86,21.89,25.39,26.11,67.55,11.5,97.02-.61-2.81-1.27-4.3-1.21-5.76,1.79-44.23-21.17-75.91-51.86-104.11-25.59-23.51-53.71-44.92-69.19-77.49-13.15-27.68-12.21-55.23,1.42-82.49Z"/>
      <path class="cls-4" d="m156.65,370.49c6.62-49.88-22.22-81.59-55.07-111.56-18.16-16.57-37.23-32.52-53.1-51.13-23.09-27.06-27.35-59.2-17.08-93.18.59-1.95,1.87-3.69,4.22-8.18.59,11.1.51,19.26,1.55,27.27,3.71,28.65,17.54,52.38,37.58,72.44,19.02,19.04,39.18,36.94,58.4,55.78,18.46,18.09,30.28,39.76,32.57,65.95,1.31,14.98-1.14,29.26-9.06,42.62Z"/>
      <path class="cls-5" d="m4.85,161.3c.93,48.6,32.74,77.34,65.35,106.11,17.8,15.7,24.94,20.63,46.53,50.15,14.6,19.96,19.39,42.61,10.24,64.8-4.77-22.75-11.23-32.37-20.72-45.68-12.4-17.4-27.96-32.83-43.63-47.55-22.82-21.44-44.93-43.14-56.76-72.91-7.16-18.01-8.09-36.39-1.03-54.92Z"/>
      <path class="cls-2" d="m121.01,0c.92,13.4-11.36,60.04,52.97,120.07,15.54,14.5,30.38,29.81,44.38,45.76,21.85,27.8,23.78,48.86,21.49,62.14-.87,5.06-1.36,10.27-4.57,15.52-1.15-6.33-2.08-12.7-3.48-18.97-6.59-29.48-27.41-52.24-48.79-71.45-17.2-15.46-30.41-29.85-46.25-46.63-20.27-21.47-29.27-59.41-24.28-81.12,1.75-7.62,8.51-25.31,8.51-25.31Z"/>
    </g>
    <text class="cls-7" transform="translate(509.81 323.99)"><tspan x="0" y="0">REAL ESTATE LLC</tspan></text>
    <g>
      <path class="cls-6" d="m336.22,199.32s-35.3-9.26-35.3-43.5c0-26.44,24.08-44.51,47.98-46.36,5.21-.4,11.56,1.06,11.56,1.06,0,0,1.24,38.2,1.24,68.84,0,21.08,15.41,43.88,45.95,43.88,22.65,0,45.03-14.05,44.7-37.16-.27-19.14-.5-53.99.08-66.56.09-2.02.41-5.26,2.66-7.82,2.71-3.08,6.3-5.12,6.3-5.12l-20.31.07s7.52,2.54,8.37,5.04c0,6.37.06,18.12.07,27.98.02,27.05.43,26.12-.87,50.3-.84,15.66-22.2,30.28-40.99,29.87-21.16-.46-38.32-18.37-38.32-34.54,0-36.85.38-73.78.38-73.78,0,0,1.78-.78,3.69-2.27,1.44-1.12,2.08-2.16,2.08-2.16,0,0-6.36-.36-16.62-.29-9.5.06-13.35.95-15.62,1.29-13.24,1.96-45.74,12.52-45.74,48.1,0,20.92,14.95,39.89,31.02,42.92,4.71.89,7.7.22,7.7.22Z"/>
      <path class="cls-6" d="m567.5,212.97c-2.97-3.78-15.08-30.38-35.72-38.24-.45-.18-.06-2.13,2.03-2.65,2.11-.51,9.29-3.8,9.29-3.8,0,0,16.52-6.34,17.95-27,1.44-20.66-22.57-31.1-22.57-31.1,0,0-5.4-2.83-17.44-3.41-12.02-.55-43.84-.2-43.84-.2,0,0,.34,1.78,2.47,2.03,2.25.26,2.92,0,4.81.37,1.89.37,2.3,4.19,2.3,4.19,0,0,1.33,95.17-.35,99.83-1.68,4.64-8.37,10.37-8.37,10.37l23.76-.12s-11.61-5.45-11.61-10.41c0-2.38,2.15-32.83,2.15-34.3s3.04-3.8,5.15-4.04c2.22-.23,7.53-.1,13.11,0,5.6.12,14.03-.98,23.51,6.09,11.59,8.68,16.86,18.14,26.4,37.03,2.01,4.02,4.64,5.47,5.58,5.63,1.76.29,10.11-1.72,10.11-1.72,0,0-5.09-3.93-8.74-8.54Zm-76.33-43.78v-46.12c0-8.53,9.81-9.89,11.58-10.63,4.3-1.8,24.41-.94,30.26.88,4.94,1.53,21.03,9.85,21.03,27.76,0,12.33-7.44,18.05-9.7,19.95-2.01,1.69-13.21,6.77-15.73,7.36-5.43,1.27-37.43.8-37.43.8Z"/>
      <path class="cls-6" d="m1116.06,238.93c-32.62-1.21-59.9-56.35-80.54-64.2-.45-.18-.06-2.13,2.03-2.65,2.11-.51,9.29-3.8,9.29-3.8,0,0,16.52-6.34,17.95-27s-22.57-31.1-22.57-31.1c0,0-5.4-2.83-17.44-3.41-12.02-.55-43.84-.2-43.84-.2,0,0,.34,1.78,2.47,2.03,2.25.26,2.92,0,4.81.37,1.89.37,2.3,4.19,2.3,4.19,0,0,1.33,95.17-.35,99.83-1.68,4.64-8.37,10.37-8.37,10.37l23.76-.12s-9.56-5.45-9.56-10.41c0-2.38.1-32.83.1-34.3s3.04-3.8,5.15-4.04c2.22-.23,7.53-.1,13.11,0,5.6.12,14.03-.98,23.51,6.09,11.59,8.68,18.22,20.38,27.5,30.86,2.42,2.73,26.93,35.85,50.5,35.85s42.41-24.05,42.41-24.05c0,0-15.96,16.67-42.23,15.69Zm-119.1-69.74v-46.12c0-8.53,7.76-9.89,9.53-10.63,4.3-1.8,24.47-.8,30.32,1.01,4.94,1.53,21.56,8.91,21.56,26.82,0,12.33-9.06,20.48-11.32,22.37-2.01,1.69-12.19,5.15-14.71,5.74-5.43,1.27-35.38.8-35.38.8Z"/>
      <path class="cls-6" d="m654.55,157.78c-.1-1.19.66-3.36,3.67-5.77,3-2.4,11.1-5.58,10.69-21.85-.39-16.27-17.56-23.59-28.8-23.59h-47.88s6.81,2.93,6.81,10.5.08,92.73.08,92.73c0,0,.51,10.55-9.23,13.42,7.69.14,58.74.35,64.42,0,8.58-.23,28.35-10.71,28.35-36.15s-28-28.11-28.11-29.3Zm-49.97-36.66c-.04-8.41,0-9.69,12.57-9.93,7.47-.14,20.92-.14,25.48.51,8.04,1.15,11.14,3.63,14.65,6.44,5.54,4.45,11.39,23.5-3.23,33.45-4.55,3.1-5.84,3.14-9.52,4.83-2.53,1.16-39.94-.16-39.94-.16,0,0,0-33.26,0-35.14Zm62.04,92.27c-8.7,5.71-20.81,6.17-25.75,6.17-4.6,0-38.28.14-38.28.14,0,0,1.99-8.8,1.99-25.03v-35.16l39.79-.29s4.92.64,9.28,1.69c29.68,7.14,31.12,40.56,12.97,52.49Z"/>
      <path class="cls-6" d="m786.08,223.24h23.08s-4.82-.74-6.42-2.52c-4.71-5.23-5.24-7.67-5.89-9.14-.65-1.47-45.34-103.4-45.34-103.4-.57-1.21-4.16-1.11-4.72.1-7.32,16-39.18,90.94-46.79,104.71-3.35,6.07-9.63,6.41-10.76,8.22-.59.94.4,2.03.69,2.03s21.36.09,21.36.09c0,0,3.68-2.98-4.77-2.82-.69.01-1.28-.11-1.53-.51-.47-.76.19-6.51.56-8.34.76-7.55,13.03-30.75,14.2-33.28,1.33-2.89,1.5-3.88,6.4-3.88,4.53,0,40.93-.14,44.4-.04,3.47.12,5.01,5.27,5.01,5.27,0,0,8.49,19.72,13.25,30.22,3.51,7.73-2.73,13.28-2.73,13.28Zm-61.33-55.57l23.27-52.64c.21-.48.88-.48,1.09,0l22.73,53.62c.33.75-.22,1.6-1.04,1.6l-44.87-.8c-.92,0-1.54-.94-1.17-1.78Z"/>
      <path class="cls-6" d="m833.57,212.85c.35-1.54-.02-98.99-.02-98.99,0-.88-.56-1.86-2.04-3.12s-7.75-4.16-7.75-4.16c0,0,3.59-.46,11.32,0,3.66.22,6.43,3.78,7.87,5.29,3.01,3.15,65.5,88.34,68.65,92.97,3.16,4.63,6.08,7.58,6.12,7.62,0,0,.21-89.08.21-92.96s-1.22-11.83-10.14-12.91c5.48-.17,22.46,0,22.46,0,0,0-8.47.69-8.63,6.92-.3,12.09-.65,104.23-.65,104.23,0,0,1.05,5.51-3.23,5.51-5.47,0-4.22-6.43-8.69-10.9-1.36-1.79-64.72-87.95-67.93-90.39-.84-.64-2.07-1.74-4.23-2.3-.97-.26-.53,90.94-.53,90.94,0,0,.09,5.03,1.35,6.95,1.26,1.91,9.68,5.71,9.68,5.71h-24.23s-.12-1.29,2.87-2.37c2.7-.97,4.05.06,5.48-1.08,1.74-1.4,1.77-5.62,2.07-6.94Z"/>
      <path class="cls-6" d="m1125.49,223.24l-25.62.09s8.65-6.11,8.96-11.82c.31-5.71.41-91.19.49-95.18.09-3.99-3.38-6.99-8.37-9.76,8.39-.11,27.49,0,27.49,0,0,0-10.46,1.27-10.72,6.02-1.03,18.57-1.01,78.63.07,97.63.65,11.49,7.68,13.01,7.68,13.01Z"/>
      <path class="cls-6" d="m1134.28,187.06s5.8,16.09,17.87,24.33c12.07,8.23,35.99,13.11,50.36,2.4,14.36-10.7,16.15-28.55,3.49-40.38-12.67-11.83-37.37-10.04-55.03-23.51-8.2-6.26-12.45-24.46-.05-34.96,12.4-10.5,23.11-8.35,32-8.35h131.4s6.14,14.74,6.87,18.32c.41,2.02.17,2.19.14,3.69-1.75-5.64-3.1-8.67-7.39-15.67-1.07-1.75-4.37-3.85-9.22-3.85-7.95,0-120.76-.47-131.24-.14-20.12.62-38.45,21.1-15.86,39.35,8.75,7.07,18.47,3.94,42.87,13.8,14.93,6.03,22.9,16.02,21.98,31.83-.92,15.81-19.61,29.9-41.58,29.32-21.97-.58-32.69-10.2-32.69-10.2,0,0-6.39-4.23-13.91,2.7v-28.68Z"/>
      <path class="cls-6" d="m1328.32,201.82c-.32,1.25-2.46,10.12-6.44,18.89-1.45,3.19-5.83,2.55-7.22,2.55-13.96-.02-39.16-.02-77.98-.02,4.35-3.85,7.68-7.24,8.03-9.91.91-6.96.06-92.63.17-96.45.13-4.7,6.61-4.51,6.61.21,0,5.53.38,41.81.38,41.81,0,0,23.1.04,31.84.04,3.7,0,9.16-4.56,9.16-4.56l-.17,9.7.17,3.78s-3.02-5.3-9.49-5.22c-6.48.09-31.58.03-31.58.03l-.1,50.52s-.87,5.39,5.96,5.66c6.83.27,55.57.22,56.14.22.56,0,6.1.95,7.62-4.26,1.52-5.21,3.43-11.78,4.88-14.7,1.45-2.91,2.34.45,2.02,1.7Z"/>
    </g>
  </g>
</svg>